<?xml version="1.0" encoding="utf-8"?>
<!-- Generator: Adobe Illustrator 16.0.4, SVG Export Plug-In . SVG Version: 6.00 Build 0)  -->
<!DOCTYPE svg PUBLIC "-//W3C//DTD SVG 1.1//EN" "http://www.w3.org/Graphics/SVG/1.1/DTD/svg11.dtd">
<svg version="1.1" xmlns="http://www.w3.org/2000/svg" xmlns:xlink="http://www.w3.org/1999/xlink" x="0px" y="0px" width="135.5px"
	 height="93.088px" viewBox="0 0 135.5 93.088" enable-background="new 0 0 135.5 93.088" xml:space="preserve">
<g id="Layer_2">
</g>
<g id="Layer_1">
	<g>
		<defs>
			<path id="SVGID_3_" d="M81.191,87.477c-0.863-2.265-1.092-4.561-0.256-6.963c2.627-7.55,11.981-10.152,19.084-11.247
				c8.74-1.348,17.925-4.388,23.292-12.741c5.581-8.688,7.863-24.438,2.781-33.701C118.408,8.814,108.38,6.485,93.096,5.886
				c-16.651-0.653-33.465,0.07-50.134,0.037c-9.241-0.02-23.275-1.726-30.471,5.552C2.509,21.57,6.802,52.899,13.403,63.756
				c7.394,12.157,22.977,9.381,35.231,10.477c9.212,0.822,26.382-1.941,29.557,9.859C78.439,85.016,79.305,87.082,81.191,87.477z"/>
		</defs>
		<clipPath id="SVGID_2_">
			<use xlink:href="#SVGID_3_"  overflow="visible"/>
		</clipPath>
		<g clip-path="url(#SVGID_2_)">
			<g>
				<path fill="#FFFFFF" d="M118.764,57.057c-5.583-1.942-10.901-4.156-16.088-6.607c12.95,0.327,25.899,0.753,38.85,0.773
					c16.123,0.025,16.12-24.975,0-25c-13.604-0.021-27.204-0.457-40.804-0.776c14.212-9.559,27.624-20.129,38.914-33.477
					c6.205-7.336-4.352-18.002-10.607-10.606C115.055-2.116,97.679,10.228,79.526,21.51c-0.062-2.007-0.114-4.014-0.145-6.021
					c-0.156-10.602,1.933-21.183,0.977-31.766c-0.613-6.783-5.222-12.5-12.5-12.5c-6.349,0-13.114,5.703-12.5,12.5
					c0.901,9.975-1.026,19.907-0.994,29.886c0.011,3.223,0.092,6.444,0.191,9.665C37.562,13.746,20.748,3.794,7.328-10.21
					C0.625-17.206-9.967-6.585-3.277,0.396c10.145,10.587,22.005,18.78,34.394,26.232c-12.611,0.503-25.223,0.694-37.925-0.406
					c-6.799-0.588-12.5,6.131-12.5,12.5c0,7.258,5.715,11.913,12.5,12.5c13.543,1.172,26.997,0.909,40.457,0.344
					c-2.641,1.788-5.318,3.522-8.08,5.132c-6.629,3.861-13.758,6.707-20.543,10.261c-6.488,3.398-11.912,7.47-19.266,8.851
					c-9.5,1.785-5.465,16.24,3.986,14.465c7.216-1.355,13.484-4.799,19.697-8.563c6.604-4,13.879-6.708,20.649-10.395
					c8.985-4.891,17.104-11.053,25.398-16.971c0.13,19.681-1.093,39.362-1.133,59.043c-0.033,16.123,24.967,16.12,25,0
					c0.04-19.244,1.122-38.472,1.107-57.713c8.966,5.335,18.138,10.185,28.085,13.696c8.083,2.853,17.484,5.272,25.002,10.044
					c-0.286,3.164,1.289,6.286,5.386,7.051c2.159,0.402,4.142,0.671,6.326,0.396c6.353-0.801,10.104-7.603,5.304-12.804
					C142.318,65.123,129.946,60.948,118.764,57.057z"/>
			</g>
			<g>
				<path fill="#00247D" d="M54.556,23.273c-0.1-3.221-0.181-6.442-0.191-9.665c-0.02-5.965,0.659-11.914,1.018-17.864
					C41.52-4.277,27.661-4.099,13.763-4.028C25.937,6.837,40.178,15.212,54.556,23.273z"/>
				<path fill="#00247D" d="M79.382,15.488c0.03,2.008,0.083,4.015,0.145,6.021c11.94-7.421,23.537-15.311,34.059-24.538
					c-7.714-0.033-15.427-0.182-23.14-0.527C87.095-3.704,83.747-3.822,80.4-3.918C80.026,2.546,79.286,9.013,79.382,15.488z"/>
				<path fill="#00247D" d="M55.491,54.346c-8.294,5.918-16.413,12.08-25.398,16.971c-6.771,3.687-14.046,6.395-20.649,10.395
					c-6.213,3.765-12.481,7.208-19.697,8.563c-9.451,1.775-13.486-12.68-3.986-14.465c7.354-1.381,12.777-5.452,19.266-8.851
					c6.785-3.554,13.914-6.399,20.543-10.261c2.762-1.609,5.439-3.344,8.08-5.132c-13.46,0.565-26.914,0.828-40.457-0.344
					c-6.785-0.587-12.5-5.242-12.5-12.5c0-6.369,5.701-13.088,12.5-12.5c12.702,1.1,25.313,0.909,37.925,0.406
					C18.728,19.176,6.867,10.983-3.277,0.396C-4.148-0.513-4.72-1.483-5.052-2.468C-26.644,3.048-43,22.861-43,46
					c0,27.225,22.744,50.041,50,50c15.913-0.024,31.78-0.396,47.652-0.413C55.018,81.84,55.582,68.093,55.491,54.346z"/>
				<path fill="#00247D" d="M173-4c-12.551,0.218-25.103,0.584-37.653,0.802c-10.335,11.116-22.173,20.269-34.625,28.644
					c13.6,0.319,27.199,0.755,40.804,0.776c16.12,0.025,16.123,25.025,0,25c-12.95-0.021-25.899-0.446-38.85-0.773
					c5.187,2.451,10.505,4.665,16.088,6.607c11.183,3.892,23.555,8.066,31.805,17.002c4.801,5.201,1.049,12.003-5.304,12.804
					c-2.185,0.275-4.167,0.007-6.326-0.396c-4.097-0.765-5.672-3.887-5.386-7.051c-7.518-4.771-16.919-7.191-25.002-10.044
					c-9.947-3.512-19.119-8.361-28.085-13.696c0.011,13.433-0.51,26.858-0.841,40.287c2.944,0.104,5.89,0.227,8.836,0.385
					C116.618,97.858,144.835,96.489,173,96c27.247-0.474,50-22.386,50-50C223,19.102,200.258-4.474,173-4z"/>
			</g>
			<g>
				<path fill="#CF142B" d="M36.026,26.419c3.709-0.167,7.418-0.349,11.132-0.524C31.646,17.218,16.481,7.904,4.087-5.029
					c-2.681-2.798-6.919,1.45-4.242,4.242C10.422,10.25,22.956,18.74,36.026,26.419z"/>
				<path fill="#CF142B" d="M79.643,25.117c3.669,0.015,7.338,0.064,11.007,0.126c16.452-10.611,32.062-22.385,44.834-37.485
					c2.482-2.934-1.74-7.201-4.242-4.242C116.73,0.669,98.552,13.418,79.642,25.1C79.643,25.105,79.643,25.111,79.643,25.117z"/>
				<path fill="#CF142B" d="M110.242,56.838c-5.093-1.798-9.969-4.046-14.716-6.557c-4.084-0.087-8.168-0.146-12.252-0.178
					c7.11,4.259,14.376,8.229,22.124,11.32c10.852,4.331,23.818,6.87,33.361,14.079c-1.209,1.573-1.033,4.165,1.434,4.625
					c1.786,0.333,3.312,0.465,5.131,0.235c2.541-0.32,4.042-3.041,2.121-5.121C137.99,65,122.933,61.318,110.242,56.838z"/>
				<path fill="#CF142B" d="M55.467,50.562c-3.498,0.147-6.991,0.314-10.483,0.483c-5.601,4.044-11.224,8.054-17.204,11.537
					C21.15,66.444,14.022,69.29,7.238,72.844C0.43,76.41-5.373,80.696-13.104,82.148c-3.801,0.714-2.187,6.495,1.594,5.785
					c6.877-1.291,12.701-4.521,18.623-8.108c6.603-4.001,13.878-6.709,20.648-10.395c9.814-5.343,18.598-12.207,27.707-18.602
					C55.467,50.74,55.468,50.65,55.467,50.562z"/>
			</g>
			<path fill="#CF142B" d="M141.525,31.223c-22.237-0.035-44.46-1.201-66.696-1.123c-0.193-4.869-0.375-9.738-0.447-14.612
				c-0.156-10.602,1.933-21.183,0.977-31.766c-0.864-9.553-15.871-9.637-15,0c0.901,9.975-1.026,19.907-0.994,29.886
				c0.019,5.59,0.206,11.177,0.426,16.763c-22.251,0.736-44.284,2.782-66.599,0.851c-9.642-0.834-9.561,14.172,0,15
				c22.491,1.946,44.733-0.059,67.173-0.852c0.702,22.673-0.959,45.346-1.006,68.018c-0.021,9.674,14.979,9.672,15,0
				c0.046-22.128,1.508-44.231,1.052-66.362c-0.014-0.653-0.041-1.306-0.058-1.959c22.059-0.111,44.115,1.121,66.173,1.156
				C151.199,46.238,151.197,31.238,141.525,31.223z"/>
		</g>
	</g>
</g>
</svg>
