<?xml version="1.0" encoding="utf-8"?>
<!-- Generator: Adobe Illustrator 16.0.4, SVG Export Plug-In . SVG Version: 6.00 Build 0)  -->
<!DOCTYPE svg PUBLIC "-//W3C//DTD SVG 1.1//EN" "http://www.w3.org/Graphics/SVG/1.1/DTD/svg11.dtd">
<svg version="1.1" xmlns="http://www.w3.org/2000/svg" xmlns:xlink="http://www.w3.org/1999/xlink" x="0px" y="0px" width="135.5px"
	 height="93.088px" viewBox="0 0 135.5 93.088" enable-background="new 0 0 135.5 93.088" xml:space="preserve">
<g id="Layer_2">
</g>
<g id="Layer_1">
	<g>
		<defs>
			<path id="SVGID_1_" d="M-78.197-37.498c-0.863-2.266-1.092-4.561-0.256-6.963c2.627-7.551,11.981-10.152,19.084-11.248
				c8.74-1.348,17.925-4.387,23.292-12.74c5.581-8.688,7.863-24.438,2.781-33.702c-7.685-14.01-17.713-16.339-32.997-16.938
				c-16.651-0.653-33.465,0.07-50.134,0.037c-9.241-0.02-23.275-1.726-30.471,5.552c-9.982,10.096-5.689,41.424,0.912,52.282
				c7.394,12.156,22.977,9.381,35.231,10.477c9.212,0.822,26.382-1.941,29.557,9.859C-80.949-39.959-80.084-37.893-78.197-37.498z"
				/>
		</defs>
		<clipPath id="SVGID_2_">
			<use xlink:href="#SVGID_1_"  overflow="visible"/>
		</clipPath>
		<g clip-path="url(#SVGID_2_)">
		</g>
	</g>
	<g>
		<defs>
			<path id="SVGID_3_" d="M242.691-34.523c-0.863-2.265-1.092-4.561-0.256-6.963c2.627-7.55,11.981-10.152,19.084-11.247
				c8.74-1.348,17.925-4.388,23.292-12.741c5.581-8.688,7.863-24.438,2.781-33.701c-7.685-14.01-17.713-16.339-32.997-16.938
				c-16.651-0.653-33.465,0.07-50.134,0.037c-9.241-0.02-23.275-1.726-30.471,5.552c-9.982,10.096-5.689,41.425,0.912,52.281
				c7.394,12.157,22.977,9.381,35.231,10.477c9.212,0.822,26.382-1.941,29.557,9.859C239.939-36.984,240.805-34.918,242.691-34.523z
				"/>
		</defs>
		<clipPath id="SVGID_4_">
			<use xlink:href="#SVGID_3_"  overflow="visible"/>
		</clipPath>
		<g clip-path="url(#SVGID_4_)">
		</g>
	</g>
	<g>
		<defs>
			<path id="SVGID_5_" d="M89.27,87.433c0.449-0.074-0.861,0.084-1.266-0.106c-6.343-6.151,8.969-13.658,12.722-14.909
				c12.315-4.104,19.046-5.341,24.117-13.887c6.383-10.757,7.071-24.774,4.461-36.721C126.387,8.457,116.931,5.643,104.25,5.63
				c-24.729-0.024-52.742-0.722-76.986,4.563C5.898,14.851,2.598,28.693,5.84,49.062c2.643,16.602,16.288,24.246,31.671,25.035
				c8.5,0.436,39.434-4.709,44.013,3.477C81.524,77.573,83.101,88.456,89.27,87.433z"/>
		</defs>
		<clipPath id="SVGID_6_">
			<use xlink:href="#SVGID_5_"  overflow="visible"/>
		</clipPath>
		<g clip-path="url(#SVGID_6_)">
			<rect x="-1.219" y="-0.764" fill="#FFFFFF" width="146" height="98.334"/>
			<g>
				<g>
					<path fill="#009246" d="M-9.26-15.191C-9.159-2.756-8.636,9.668-8.311,22.1c0.161,6.158,0.225,12.318,0.174,18.479
						c-0.026,3.146-0.097,6.291-0.244,9.433c-0.074,1.185-0.178,2.366-0.312,3.545c0.825-8.169,0.203-1.955-0.117-0.203
						c-2.207,12.105-6.626,23.961-6.778,36.382c-0.151,12.448,2.555,27.839,12.13,36.681c11.004,10.161,27.98,10.911,38.891,0
						c10.279-10.278,11.015-28.721,0-38.891c-1.812-1.72-0.839-0.446,2.917,3.819c2.034,5.228,2.6,6.522,1.697,3.885
						c-0.792-2.386-1.512-9.762-0.321,0.381c-0.431-3.675,0.789-15.15-1.004-2.981c0.782-5.309,2.321-10.562,3.567-15.774
						c1.844-7.718,3.035-15.416,4.018-23.298c1.359-10.908,0.621-22.315,0.334-33.277c-0.309-11.824-0.806-23.641-0.902-35.47
						c-0.122-14.989-12.417-27.5-27.5-27.5C3.341-42.691-9.382-30.184-9.26-15.191L-9.26-15.191z"/>
				</g>
			</g>
			<g>
				<g>
					<path fill="#CE2B37" d="M88.205-14.546c-0.871,19.616-2.726,39.214-1.335,58.852c1.486,20.995,2.269,42.128,4.489,63.06
						c0.803,7.57,2.482,13.873,8.055,19.445c5.134,5.134,12.181,8.055,19.445,8.055c13.792,0,29.083-12.563,27.5-27.5
						c-2.155-20.33-2.424-40.797-4.332-61.147c-1.895-20.21,0.282-40.562,1.18-60.764c0.665-14.985-13.013-27.5-27.5-27.5
						C100.211-42.046,88.869-29.517,88.205-14.546L88.205-14.546z"/>
				</g>
			</g>
		</g>
	</g>
</g>
</svg>
