<?xml version="1.0" encoding="utf-8"?>
<!-- Generator: Adobe Illustrator 16.0.4, SVG Export Plug-In . SVG Version: 6.00 Build 0)  -->
<!DOCTYPE svg PUBLIC "-//W3C//DTD SVG 1.1//EN" "http://www.w3.org/Graphics/SVG/1.1/DTD/svg11.dtd">
<svg version="1.1" id="Layer_1" xmlns="http://www.w3.org/2000/svg" xmlns:xlink="http://www.w3.org/1999/xlink" x="0px" y="0px"
	 width="474.5px" height="11px" viewBox="0 0 474.5 11" enable-background="new 0 0 474.5 11" xml:space="preserve">
<g>
	<g>
		<g>
			<g>
				<g>
					<polygon points="471.675,7.492 471.462,7.399 470.865,7.56 					"/>
					<path d="M467.855,7.645c0.106,0.047,0.047,0.104,0.155,0.151l2.274-0.409C469.328,6.972,468.483,7.921,467.855,7.645z"/>
					<path d="M467.21,7.532c-0.846-0.208-1.228,0.04-1.436,0.118C466.094,7.459,467.367,7.847,467.21,7.532z"/>
					<path d="M391.55,6.412c0.079-0.005,0.186-0.018,0.265-0.03C391.68,6.38,391.594,6.393,391.55,6.412z"/>
					<path d="M371.884,8.227l-0.199,0.23c3.662-0.553,7.83-0.311,11.71-0.665l-0.26,0.091c9.864-0.42,18.95-1.059,28.755-1.23
						c-0.153,0.023-0.204,0.09-0.362,0.115c0.473-0.078,0.996-0.221,1.527-0.202c0.138,0.049-0.148,0.103-0.319,0.126
						c2.069,0.363,6.078-0.243,7.371,0.038c0.582-0.04,0.839-0.193,0.515-0.31c3.837-0.027,7.807-0.057,11.795-0.086
						c1.995-0.025,3.994-0.051,5.983-0.076c1.991,0.004,3.973,0.008,5.929,0.012c0.375,0.063,0.439,0.166,0.333,0.289
						c3.35-0.181,6.779-0.149,10.223-0.031c3.439,0.238,6.89,0.631,10.299,0.949c0.276-0.135-0.682-0.223,0.005-0.329
						c-2.183-0.375-4.054,0.054-6.024-0.393l0.266-0.13c-1.443-0.215-0.319,0.356-1.811,0.039c-0.585-0.174,0.161-0.18-0.114-0.213
						c-0.771-0.055-1.551-0.108-2.331-0.163c-0.782-0.023-1.565-0.048-2.343-0.071c-1.555-0.035-3.089-0.031-4.549,0.102
						c-0.705-0.354-3.314-0.128-4.446-0.481c-0.802,0.102-1.603,0.04-1.911,0.247c-10.795-0.424-21.822-0.075-32.861-0.079
						c-2.583,0.297-5.428,0.361-8.394,0.334c-2.964,0.005-6.065-0.146-9.123,0.139c-0.043-0.021-0.037-0.045,0.004-0.065
						c-1.993,0.249-4.901,0.458-7.291,0.49l-2.008,0.36c-14.364,0.26-28.985,0.636-43.572-0.032
						c-2.068-0.081-4.104-0.16-6.116-0.239c-2.009-0.116-3.992-0.231-5.959-0.346c-1.965-0.115-3.912-0.229-5.85-0.342
						c-1.934-0.153-3.856-0.305-5.776-0.457l-5.758-0.411c-1.936-0.097-3.875-0.192-5.825-0.289
						c-3.902-0.162-7.847-0.334-11.896-0.125c0.022-0.062-0.107-0.098,0.311-0.116c-4.668,0.061-8.919-0.321-13.312-0.075
						l0.013-0.062c-2.724,0.164-5.502,0.26-8.302,0.321c-2.799,0.087-5.619,0.174-8.427,0.261
						c-5.618,0.144-11.179,0.361-16.414,0.83c-12.77,0.378-27.205,0.874-40.727,0.592l0.036-0.125
						c-10.825-0.073-21.253-1.116-32.046-1.316c-5.533-0.448-11.244-0.474-16.959-0.709c-5.711-0.274-11.444-0.557-17.008-1.186
						c-6.874-1.269-16.032-0.175-22.513-0.928C102.773,1.44,89.788,2.601,76.477,3.793c-3.083,0.087-6.163,0.174-9.237,0.261
						c-3.073,0.126-6.14,0.252-9.194,0.377C51.937,4.688,45.871,4.9,39.896,4.713c-5.654,0.551-11.914-0.49-18.208-0.319
						l0.226,0.155c-2.263-0.465-5.034,0.68-6.447-0.018l0.238-0.032c-1.197-0.354-2.776,0.85-3.505,0.429l-0.193,0.177
						c-1.449,0.056-0.172-0.199-1.29-0.266C10.296,4.862,10.558,5.16,9.68,5.062c-0.192-0.72-3.549,0.169-3.65-0.64
						c0.792-0.003-1.242-0.31,0.538-0.485C6.061,3.856,3.633,3.905,3.851,4.248c-0.208,0.364-1.156,0.684,0.32,0.964l0.297-0.267
						c0.497,0.264,0.378,0.131,0.556,0.33c1.929,0.027,2.187,0.413,3.57,0.568C8.58,5.836,8.566,5.828,8.587,5.814
						c0.945-0.322,2.253-0.138,3.001-0.095l0.3,0.146c0.456,0.308,2.192-0.612,1.607-0.079c3.921-0.146,8.417-0.157,12.798-0.18
						c0.612-0.204,3.354,0.006,2.394-0.379c1.101,0.438,4.362,0.539,5.573,0.518c-0.045,0.042-0.096,0.089-0.286,0.073
						c2.355,0.559,2.777-0.524,4.988,0.135c0.338-0.506,4.004,0.049,5.24-0.568c0.274,0.103,0.366,0.199,0.269,0.291
						c3.965-0.098,8.35-0.039,11.707-0.108c2.852-0.514,6.95,0.007,9.391-0.662c2.045,0.06,5.367,0.259,8.2-0.115l-0.273,0.086
						c3.208-0.181,7.216-0.409,9.4-0.875c0.974,0.536,2.355,0.363,3.75,0.49c2.132-0.37,6.457-0.437,9.717-0.78
						c0.509,0.251,2.694-0.205,2.872,0.184c9.132-0.992,20.495-0.748,30.207,0.315L129.3,4.231c1.274-0.15,2.758-0.548,4.066-0.759
						c0.125,0.039,0.106,0.103-0.165,0.088c1.788,0.038,3.424,0.568,5.206,0.63c-0.02,0.062-0.02,0.062-0.312,0.102
						c1.684-0.041,3.411,0.577,5.416,0.433l0.101,0.11l1.271-0.046c-0.042,0.125-0.107,0.312-0.776,0.219
						c15.341,1.514,31.241,1.383,46.994,2.03l-0.583,0.102l3.063-0.112c-0.019,0.063-0.166,0.09-0.312,0.113
						c3.886,0.341,7.934,0.146,11.73,0.292c-0.02,0.062-0.6,0.175-0.07,0.254c2.825-0.298,4.515,0.533,5.939-0.164
						c0.13,0.036,0.217,0.2-0.071,0.253c1.959-0.01,3.931-0.02,5.911-0.029c1.978-0.041,3.962-0.082,5.949-0.123
						c3.973-0.051,7.953-0.101,11.895-0.151c6.542-0.839,13.888-0.512,20.679-1.286l-0.029,0.131
						c4.4-0.378,8.943-0.498,13.527-0.588c4.585-0.036,9.209,0.029,13.778-0.081c3.793,0.103,6.358,0.007,10.172,0.062l0.091,0.165
						c3.22-0.317,6.583,0.117,9.975,0.435c3.391,0.336,6.812,0.663,10.185,0.581l-0.479,0.188c1.062-0.267,4.037,0.413,3.683-0.201
						l1.168,0.263c1.147-0.111,2.235-0.106,3.31-0.041c1.077,0.039,2.14,0.142,3.235,0.254c2.189,0.226,4.51,0.49,7.306,0.368
						l-0.371,0.122c1.485-0.024,3.217-0.091,4.311,0.076c-0.172,0.015-0.093,0.059-0.447,0.085c4.63,0.682,9.816,0.225,14.715,0.31
						l-0.561,0.25c2.375-0.277,6.714,0.141,9.833-0.075l-0.19,0.123l1.577-0.187l0.041,0.245
						C364.118,8.617,367.936,8.48,371.884,8.227z"/>
					<path d="M412.735,6.691c-0.012-0.003-0.029-0.003-0.043-0.008C412.571,6.705,412.63,6.702,412.735,6.691z"/>
					<path d="M9.091,5.892C8.905,5.873,8.75,5.858,8.594,5.844C8.632,5.893,8.932,5.881,9.091,5.892z"/>
				</g>
			</g>
		</g>
	</g>
</g>
</svg>
